<svg height="512pt" viewBox="0 0 512 512" width="512pt" xmlns="http://www.w3.org/2000/svg" xmlns:xlink="http://www.w3.org/1999/xlink"><linearGradient id="a" gradientUnits="userSpaceOnUse" x1="255.9998632674" x2="255.9998632674" y1="0" y2="511.9997265348"><stop offset="0" stop-color="#2af598"/><stop offset="1" stop-color="#009efd"/></linearGradient><path d="m301.050781 329.355469 182.644531 182.644531 28.304688-28.304688-182.644531-182.644531c25.570312-31.75 40.902343-72.074219 40.902343-115.921875 0-61.035156-29.695312-115.257812-75.386718-149-.816406-.65625-1.628906-1.308594-2.460938-1.949218-.871094-.667969-1.785156-1.234376-2.71875-1.738282-29.773437-20.453125-65.792968-32.441406-104.5625-32.441406-102.082031 0-185.128906 83.050781-185.128906 185.128906 0 63.933594 32.578125 120.394532 82 153.671875l-1.230469 1.382813-.167969-.148438c.835938.777344 20.46875 19.480469 20.46875 55.242188 0 8.808594-2.863281 16.421875-5.894531 24.480468-3.007812 7.996094-6.113281 16.261719-6.113281 25.550782 0 .226562.027344.445312.035156.671875-.023437.441406-.035156.882812-.035156 1.332031 0 16.578125 13.441406 30.019531 30.019531 30.019531 16.582031 0 30.023438-13.441406 30.023438-30.019531 0-.449219-.015625-.890625-.035157-1.332031.007813-.226563.035157-.445313.035157-.671875 0-8.121094-1.945313-15.875-3.824219-23.371094-2.054688-8.203125-4.183594-16.683594-4.183594-26.660156 0-13.773438 3.4375-23.351563 6.261719-28.898438 12.195313 2.539063 24.828125 3.878906 37.769531 3.878906.261719 0 .519532-.007812.78125-.007812 1.449219.472656 2.964844.808594 4.546875.9375 2.707031.667969 3.679688 6.171875 3.679688 11.160156 0 4.609375-2.515625 11.402344-4.734375 17.398438-2.503906 6.761718-4.875 13.175781-5.226563 19.871094 0 .058593-.007812.117187-.007812.175781-.023438.5-.039063 1-.039063 1.5 0 16.582031 13.441406 30.023437 30.019532 30.023437 16.582031 0 30.023437-13.441406 30.023437-30.023437 0-.5-.015625-1-.039063-1.5-.003906-.058594-.007812-.117188-.011718-.175781-.351563-6.695313-2.722656-13.113282-5.222656-19.871094-2.21875-5.996094-4.734376-12.789063-4.734376-17.398438 0-10.175781 6.382813-18.660156 8.574219-21.277344 21.417969-7.03125 41.121094-17.867187 58.3125-31.714843zm-261.023437-144.226563c0-80.007812 65.09375-145.101562 145.101562-145.101562 31.765625 0 61.171875 10.269531 85.09375 27.648437 21.078125 17.285157 33.695313 43.03125 35.621094 72.839844 2.230469 34.53125-10.402344 69.109375-33.796875 92.503906-16.324219 16.324219-39.824219 25.644531-64.597656 25.644531-.277344 0-.5625-.003906-.84375-.003906-25.089844-.214844-49.070313-9.925781-65.78125-26.640625-12.730469-12.726562-19.738281-29.648437-19.738281-47.648437 0-18.003906 7.007812-34.925782 19.738281-47.652344 9.472656-9.472656 23.675781-15.074219 38.972656-15.363281 15.148437-.28125 29.03125 4.746093 38.140625 13.808593l3.003906 3.074219c8.277344 8.273438 8.277344 21.734375.003906 30.007813-5.0625 5.0625-13.292968 5.058594-18.347656 0-7.816406-7.816406-20.492187-7.816406-28.304687 0-7.816407 7.816406-7.816407 20.488281 0 28.304687 20.664062 20.664063 54.289062 20.664063 74.953125 0 23.851562-23.851562 23.878906-62.640625.089844-86.527343l-3.023438-3.09375c-16.757812-16.757813-41.289062-26.101563-67.277344-25.597657-25.546875.484375-49.792968 10.355469-66.519531 27.082031-41.878906 41.878907-41.878906 110.027344 0 151.910157 24.078125 24.074219 58.246094 38.058593 93.75 38.359375.394531.003906.78125.003906 1.175781.003906 35.316406 0 69.125-13.582031 92.910156-37.363281 8.058594-8.0625 15.164063-17.09375 21.230469-26.835938-20.242187 55.78125-73.765625 95.742188-136.453125 95.742188-80.007812 0-145.101562-65.09375-145.101562-145.101563zm0 0" fill="url(#a)"/></svg>